<svg width="658" height="712" viewBox="0 0 658 712" fill="none" xmlns="http://www.w3.org/2000/svg">
<g clip-path="url(#clip0_2216_43870)">
<path d="M150.761 108.777C147.746 140.356 159.8 174.533 166.203 187.674L285.022 149.464C281.043 137.608 268.597 107.993 250.638 84.3832C232.68 60.7738 193.397 41.3123 176 34.5328C168.843 46.1227 153.775 77.1974 150.761 108.777Z" fill="black" stroke="white" stroke-width="18.0643"/>
<path d="M585.675 474.898C544.185 599.883 362.935 640.407 218.066 592.316C73.1969 544.224 7.97349 432.364 49.4639 307.379C90.9544 182.394 223.738 112.084 408.897 173.55C594.056 235.016 627.165 349.912 585.675 474.898Z" fill="black" stroke="white" stroke-width="18.0643"/>
<path d="M310.69 410.55C284.062 461.405 222.569 454.181 172.812 428.128C123.055 402.075 85.6213 357.5 112.249 306.645C138.877 255.791 194.687 231.596 258.282 264.895C321.877 298.193 337.318 359.695 310.69 410.55Z" stroke="white" stroke-width="18.0643"/>
<path d="M383.354 307.805C378.232 312.458 360.312 304.054 348.129 290.643C335.946 277.233 332.047 262.505 337.169 257.851C342.292 253.198 361.84 251.971 377.411 269.111C392.981 286.251 388.477 303.151 383.354 307.805Z" fill="white" stroke="white" stroke-width="18.0643"/>
<path d="M230.499 373.923C226.607 374.397 230.857 362.658 231.204 351.77C231.55 340.881 227.989 330.973 231.88 330.5C235.772 330.026 244.138 336.334 243.695 350.25C243.252 364.167 234.39 373.45 230.499 373.923Z" fill="white" stroke="white" stroke-width="18.0643"/>
<path d="M171.955 304.563C173.167 306.862 165.952 309.013 160.15 313.314C154.347 317.616 150.027 324.016 148.815 321.717C147.603 319.417 148.844 311.431 156.26 305.934C163.675 300.436 170.744 302.264 171.955 304.563Z" fill="white" stroke="white" stroke-width="18.0643"/>
<path d="M218.287 211.257C218.453 214.716 208.243 218.845 199.052 219.287C189.86 219.728 181.795 216.477 181.629 213.017C181.463 209.558 187.304 201.616 199.052 201.052C210.8 200.487 218.121 207.798 218.287 211.257Z" fill="white" stroke="white" stroke-width="18.0643"/>
<path d="M523.902 151.276C494.124 164.553 463.226 185.234 454.708 197.611C464.912 206.589 495.353 235.007 509.804 247.291C524.256 259.575 551.202 288.091 560.385 297.868C568.979 288.311 584.212 256.303 596.25 228.294C608.288 200.284 605.828 155.294 603.094 136.3C589.104 135.76 553.68 137.998 523.902 151.276Z" fill="black"/>
<path d="M437.637 216.945C447.449 202.687 475.649 170.347 509.954 155.052C544.258 139.756 585.066 137.177 601.182 137.8C604.333 159.681 607.167 211.509 593.298 243.776C579.43 276.043 556.161 306.13 546.26 317.139" stroke="white" stroke-width="19.8708" stroke-linecap="round"/>
<path d="M476.386 240.064C476.386 240.064 479.095 229.156 497.16 213.87C508.902 203.935 518.837 198.516 518.837 198.516" stroke="white" stroke-width="19.8708" stroke-linecap="round"/>
<path d="M217.904 528.514C183.589 529.449 167.5 493 178 435L241.784 455.051C248.121 479.149 252.218 527.58 217.904 528.514Z" fill="black" stroke="white" stroke-width="18.0643"/>
<path d="M203.287 486.688C204.736 491.461 209.78 494.156 214.553 492.707C219.327 491.258 222.022 486.214 220.573 481.441L203.287 486.688ZM208.5 467.5L217.517 466.971L217.517 466.971L208.5 467.5ZM210.125 450C201.252 448.309 201.252 448.31 201.252 448.311C201.252 448.311 201.252 448.312 201.252 448.312C201.252 448.314 201.251 448.315 201.251 448.317C201.251 448.32 201.25 448.323 201.249 448.328C201.247 448.337 201.245 448.348 201.243 448.362C201.237 448.39 201.23 448.428 201.221 448.475C201.204 448.571 201.179 448.705 201.149 448.874C201.088 449.213 201.004 449.693 200.905 450.287C200.708 451.472 200.45 453.126 200.204 455.015C199.735 458.633 199.23 463.709 199.483 468.029L217.517 466.971C217.368 464.432 217.675 460.757 218.119 457.34C218.33 455.712 218.554 454.277 218.724 453.252C218.809 452.742 218.88 452.337 218.929 452.067C218.953 451.932 218.971 451.831 218.983 451.767C218.989 451.735 218.993 451.712 218.996 451.7C218.997 451.693 218.998 451.689 218.998 451.688C218.998 451.687 218.998 451.687 218.998 451.687C218.998 451.688 218.998 451.688 218.998 451.689C218.998 451.689 218.998 451.689 218.998 451.69C218.998 451.69 218.998 451.691 210.125 450ZM199.483 468.029C199.725 472.152 200.752 476.955 201.583 480.366C202.017 482.15 202.437 483.709 202.749 484.826C202.906 485.386 203.037 485.839 203.13 486.157C203.176 486.317 203.214 486.443 203.24 486.532C203.254 486.577 203.264 486.613 203.272 486.639C203.276 486.652 203.279 486.662 203.282 486.67C203.283 486.675 203.284 486.678 203.285 486.681C203.286 486.682 203.286 486.684 203.286 486.685C203.286 486.685 203.287 486.686 203.287 486.686C203.287 486.687 203.287 486.688 211.93 484.064C220.573 481.441 220.573 481.441 220.573 481.442C220.573 481.442 220.573 481.443 220.573 481.443C220.573 481.443 220.574 481.444 220.574 481.444C220.574 481.444 220.574 481.444 220.573 481.443C220.573 481.442 220.572 481.438 220.57 481.432C220.566 481.42 220.56 481.398 220.551 481.368C220.533 481.307 220.504 481.211 220.467 481.083C220.392 480.827 220.281 480.445 220.146 479.962C219.875 478.993 219.51 477.635 219.134 476.093C218.346 472.854 217.658 469.375 217.517 466.971L199.483 468.029Z" fill="white"/>
</g>
<defs>
<clipPath id="clip0_2216_43870">
<rect width="658" height="712" fill="white"/>
</clipPath>
</defs>
</svg>
